<?xml version="1.0" encoding="UTF-8"?>
<svg width="240px" height="160px" viewBox="0 0 240 160" version="1.1" xmlns="http://www.w3.org/2000/svg" xmlns:xlink="http://www.w3.org/1999/xlink">
  <!-- Generator: Sketch 60.1 (88133) - https://sketch.com -->
  <title>Browser</title>
  <desc>Created with Sketch.</desc>
  <g id="Device" stroke="none" stroke-width="1" fill="none" fill-rule="evenodd">
    <g id="Default-Browser" fill="#000000" fill-rule="nonzero">
      <path d="M240,150 C240,155.522847 235.522847,160 230,160 L10,160 C4.4771525,160 0,155.522847 0,150 L0,10 C0,4.4771525 4.4771525,0 10,0 L230,0 C235.522847,0 240,4.4771525 240,10 L240,150 Z M234,33 L6,33 L6,150 C6,152.142195 7.68396847,153.891079 9.80035966,153.995105 L10,154 L230,154 C232.142195,154 233.891079,152.316032 233.995105,150.19964 L234,150 L234,33 Z M93.3357426,90.6125692 L93.3357426,101.219315 C93.3357426,103.714246 95.358284,105.736788 97.8532152,105.736788 L108.014333,105.736788 C107.98871,106.085519 107.945228,106.459422 107.880333,106.85178 C107.676408,108.084715 107.297141,109.299535 106.703483,110.417753 C105.067746,113.498833 102.105061,115.369222 97.3613136,115.486241 L95.9237032,115.488598 C93.2336738,115.488598 90.6974409,114.49893 88.7109373,112.737099 L88.4203565,112.47207 C85.6345313,110.126627 84,106.707764 84,103.024604 C84,97.2046124 88.0101039,92.1086796 93.3357426,90.6125692 Z M134.64552,87.0384906 C141.05183,87.0384906 146.438937,91.7342244 147.289989,97.9512974 L147.380771,98.6144766 L148.048704,98.6582186 C152.511604,98.9504875 156,102.622668 156,107.062898 C156,111.714198 152.185645,115.488597 147.476464,115.488597 L104.006342,115.488597 C105.815408,114.468845 107.186147,113.005498 108.151771,111.186645 C108.83552,109.898733 109.266951,108.516826 109.49809,107.119354 C109.582079,106.611556 109.634442,106.129904 109.661212,105.683966 L109.676747,105.348608 C109.679974,105.246092 109.681375,105.153068 109.681324,105.070201 L109.679522,104.926567 L109.679522,104.926567 C109.685482,99.1063982 114.458892,94.3872067 120.351242,94.3872067 C120.999494,94.3872067 121.647365,94.4472274 122.292887,94.564595 L122.900498,94.6750698 L123.174382,94.1215502 C125.301328,89.8229924 129.719139,87.0384906 134.64552,87.0384906 Z M139.996069,68.5114019 C141.585399,68.5114019 142.873805,69.7998084 142.873805,71.3891384 L142.873805,87.9558285 C141.264837,86.8455011 139.419336,86.0535707 137.433873,85.666829 L137.433873,73.9147034 L100.415411,73.9147034 L100.415411,98.69375 L109.774902,98.69375 C108.809414,100.293688 108.203719,102.131238 108.068572,104.097052 L97.8532152,104.097052 C96.2638851,104.097052 94.9754786,102.808645 94.9754786,101.219315 L94.9754786,71.3891384 C94.9754786,69.7998084 96.2638851,68.5114019 97.8532152,68.5114019 L139.996069,68.5114019 Z M113.466491,81.591686 C118.698789,81.591686 123.30205,84.2485321 125.974057,88.2715174 C124.349858,89.4845708 122.982032,91.0400564 121.985138,92.8566198 C121.442347,92.7843056 120.897343,92.7474708 120.351242,92.7474708 C116.588326,92.7474708 113.218864,94.4190899 110.960299,97.0540141 L102.055147,97.0540141 L102.055147,86.8188246 C104.840529,83.5692102 108.972951,81.591686 113.466491,81.591686 Z M230,6 L10,6 C7.85780461,6 6.10892112,7.68396847 6.00489531,9.80035966 L6,10 L6,30 L234,30 L234,10 C234,7.85780461 232.316032,6.10892112 230.19964,6.00489531 L230,6 Z M18,12 C21.3137085,12 24,14.6862915 24,18 C24,21.3137085 21.3137085,24 18,24 C14.6862915,24 12,21.3137085 12,18 C12,14.6862915 14.6862915,12 18,12 Z M36,12 C39.3137085,12 42,14.6862915 42,18 C42,21.3137085 39.3137085,24 36,24 C32.6862915,24 30,21.3137085 30,18 C30,14.6862915 32.6862915,12 36,12 Z M54,12 C57.3137085,12 60,14.6862915 60,18 C60,21.3137085 57.3137085,24 54,24 C50.6862915,24 48,21.3137085 48,18 C48,14.6862915 50.6862915,12 54,12 Z M222,12 C225.313708,12 228,14.6862915 228,18 C228,21.3137085 225.313708,24 222,24 L78,24 C74.6862915,24 72,21.3137085 72,18 C72,14.6862915 74.6862915,12 78,12 L222,12 Z" id="Browser"></path>
    </g>
  </g>
</svg>