<svg fill="none" height="270" viewBox="0 0 347 270" width="347" xmlns="http://www.w3.org/2000/svg" xmlns:xlink="http://www.w3.org/1999/xlink"><filter id="a" color-interpolation-filters="sRGB" filterUnits="userSpaceOnUse" height="212.544" width="346.746" x="0" y="38.7278"><feFlood flood-opacity="0" result="BackgroundImageFix"/><feColorMatrix in="SourceAlpha" result="hardAlpha" type="matrix" values="0 0 0 0 0 0 0 0 0 0 0 0 0 0 0 0 0 0 127 0"/><feOffset dy="10"/><feGaussianBlur stdDeviation="10"/><feComposite in2="hardAlpha" operator="out"/><feColorMatrix type="matrix" values="0 0 0 0 0 0 0 0 0 0 0 0 0 0 0 0 0 0 0.1 0"/><feBlend in2="BackgroundImageFix" mode="normal" result="effect1_dropShadow_2851_29031"/><feBlend in="SourceGraphic" in2="effect1_dropShadow_2851_29031" mode="normal" result="shape"/></filter><linearGradient id="b" gradientUnits="userSpaceOnUse" x1="38.3223" x2="308.322" y1="-.000001" y2="270"><stop offset="0" stop-color="#fff5cc"/><stop offset="1" stop-color="#fee266"/></linearGradient><circle cx="173.373" cy="135" fill="#fff5cc" r="135"/><circle cx="173.373" cy="135" fill="url(#b)" r="135"/><g filter="url(#a)"><path d="m20 53.5207c0-2.6471 2.1459-4.7929 4.7929-4.7929h297.1601c2.647 0 4.793 2.1458 4.793 4.7929v162.9583c0 2.647-2.146 4.793-4.793 4.793h-297.1601c-2.647 0-4.7929-2.146-4.7929-4.793z" fill="#fff"/><path d="m77.5149 125.414c0-1.764 1.4306-3.195 3.1953-3.195h51.1238c1.765 0 3.196 1.431 3.196 3.195v31.953c0 1.765-1.431 3.195-3.196 3.195h-51.1238c-1.7647 0-3.1953-1.43-3.1953-3.195z" fill="#b7f9f6"/><g fill="#e8eaf2"><path d="m77.5149 168.231c0-1.589 1.2875-2.876 2.8757-2.876h51.7634c1.588 0 2.876 1.287 2.876 2.876 0 1.588-1.288 2.875-2.876 2.875h-51.7634c-1.5882 0-2.8757-1.287-2.8757-2.875z"/><path d="m77.5149 178.775c0-1.588 1.2875-2.876 2.8757-2.876h51.7634c1.588 0 2.876 1.288 2.876 2.876 0 1.588-1.288 2.876-2.876 2.876h-51.7634c-1.5882 0-2.8757-1.288-2.8757-2.876z"/><path d="m77.5149 189.32c0-1.589 1.2875-2.876 2.8757-2.876h51.7634c1.588 0 2.876 1.287 2.876 2.876 0 1.588-1.288 2.875-2.876 2.875h-51.7634c-1.5882 0-2.8757-1.287-2.8757-2.875z"/><path d="m77.5149 199.864c0-1.588 1.2875-2.876 2.8757-2.876h51.7634c1.588 0 2.876 1.288 2.876 2.876 0 1.588-1.288 2.876-2.876 2.876h-51.7634c-1.5882 0-2.8757-1.288-2.8757-2.876z"/></g><path d="m144.615 125.414c0-1.764 1.431-3.195 3.196-3.195h51.124c1.765 0 3.195 1.431 3.195 3.195v31.953c0 1.765-1.43 3.195-3.195 3.195h-51.124c-1.765 0-3.196-1.43-3.196-3.195z" fill="#45e4e0"/><path d="m144.615 168.231c0-1.589 1.288-2.876 2.876-2.876h51.764c1.588 0 2.875 1.287 2.875 2.876 0 1.588-1.287 2.875-2.875 2.875h-51.764c-1.588 0-2.876-1.287-2.876-2.875z" fill="#e8eaf2"/><path d="m144.615 178.775c0-1.588 1.288-2.876 2.876-2.876h51.764c1.588 0 2.875 1.288 2.875 2.876 0 1.588-1.287 2.876-2.875 2.876h-51.764c-1.588 0-2.876-1.288-2.876-2.876z" fill="#e8eaf2"/><path d="m144.615 189.32c0-1.589 1.288-2.876 2.876-2.876h51.764c1.588 0 2.875 1.287 2.875 2.876 0 1.588-1.287 2.875-2.875 2.875h-51.764c-1.588 0-2.876-1.287-2.876-2.875z" fill="#e8eaf2"/><path d="m144.615 199.864c0-1.588 1.288-2.876 2.876-2.876h51.764c1.588 0 2.875 1.288 2.875 2.876 0 1.588-1.287 2.876-2.875 2.876h-51.764c-1.588 0-2.876-1.288-2.876-2.876z" fill="#e8eaf2"/><path d="m211.716 125.414c0-1.764 1.431-3.195 3.195-3.195h51.125c1.764 0 3.195 1.431 3.195 3.195v31.953c0 1.765-1.431 3.195-3.195 3.195h-51.125c-1.764 0-3.195-1.43-3.195-3.195z" fill="#64a0ff"/><path d="m211.716 168.231c0-1.589 1.288-2.876 2.876-2.876h51.763c1.588 0 2.876 1.287 2.876 2.876 0 1.588-1.288 2.875-2.876 2.875h-51.763c-1.588 0-2.876-1.287-2.876-2.875z" fill="#e8eaf2"/><path d="m211.716 178.775c0-1.588 1.288-2.876 2.876-2.876h51.763c1.588 0 2.876 1.288 2.876 2.876 0 1.588-1.288 2.876-2.876 2.876h-51.763c-1.588 0-2.876-1.288-2.876-2.876z" fill="#e8eaf2"/><path d="m211.716 189.32c0-1.589 1.288-2.876 2.876-2.876h51.763c1.588 0 2.876 1.287 2.876 2.876 0 1.588-1.288 2.875-2.876 2.875h-51.763c-1.588 0-2.876-1.287-2.876-2.875z" fill="#e8eaf2"/><path d="m211.716 199.864c0-1.588 1.288-2.876 2.876-2.876h51.763c1.588 0 2.876 1.288 2.876 2.876 0 1.588-1.288 2.876-2.876 2.876h-51.763c-1.588 0-2.876-1.288-2.876-2.876z" fill="#e8eaf2"/><path d="m172.027 69.6815c.629-.9816 2.063-.9816 2.691 0l2.124 3.3167c.216.3386.553.583.942.6845l3.81.9945c1.128.2944 1.571 1.6583.832 2.5593l-2.498 3.0445c-.255.3107-.384.7061-.36 1.1074l.231 3.9314c.069 1.1635-1.091 2.0065-2.177 1.5817l-3.667-1.4351c-.374-.1465-.79-.1465-1.164 0l-3.668 1.4351c-1.085.4248-2.245-.4182-2.177-1.5817l.232-3.9314c.023-.4013-.105-.7967-.36-1.1074l-2.498-3.0445c-.74-.901-.296-2.2649.831-2.5593l3.811-.9945c.389-.1015.725-.3459.942-.6845z" fill="#f9cd9d"/><path d="m77.5149 99.2129c0-1.5882 1.2875-2.8757 2.8757-2.8757h185.9644c1.588 0 2.876 1.2875 2.876 2.8757 0 1.5881-1.288 2.8761-2.876 2.8761h-185.9644c-1.5882 0-2.8757-1.288-2.8757-2.8761z" fill="#e8eaf2"/><path d="m125.444 109.757c0-1.588 1.287-2.875 2.876-2.875h90.106c1.588 0 2.876 1.287 2.876 2.875 0 1.589-1.288 2.876-2.876 2.876h-90.106c-1.589 0-2.876-1.287-2.876-2.876z" fill="#e8eaf2"/></g></svg>