<svg width="347" height="270" viewBox="0 0 347 270" fill="none" xmlns="http://www.w3.org/2000/svg">
<circle cx="173.784" cy="135" r="135" fill="#FFF5CE"/>
<circle cx="173.784" cy="135" r="135" fill="url(#paint0_linear_2852_29781)"/>
<g filter="url(#filter0_d_2852_29781)">
<mask id="mask0_2852_29781" style="mask-type:alpha" maskUnits="userSpaceOnUse" x="20" y="48" width="307" height="174">
<path d="M20.2515 53.5207C20.2515 50.8736 22.3973 48.7278 25.0444 48.7278H322.204C324.851 48.7278 326.997 50.8736 326.997 53.5207V216.479C326.997 219.126 324.851 221.272 322.204 221.272H25.0444C22.3973 221.272 20.2515 219.126 20.2515 216.479V53.5207Z" fill="#C4C4C4"/>
</mask>
<g mask="url(#mask0_2852_29781)">
<path d="M20.2515 200.503H326.997V221.272H20.2515V200.503Z" fill="#4385F9"/>
<path d="M43.1505 208.015C42.7627 208.181 42.3519 208.29 41.9313 208.34C42.3806 208.082 42.7139 207.67 42.8653 207.186C42.4483 207.424 41.9929 207.591 41.5184 207.682C41.1114 207.265 40.5468 207.028 39.9551 207.024C38.7806 207.029 37.8313 207.954 37.8313 209.093C37.8277 209.253 37.8442 209.413 37.8805 209.569C36.164 209.49 34.5647 208.702 33.4856 207.405C33.2934 207.72 33.1916 208.079 33.1906 208.444C33.2 209.143 33.569 209.79 34.1738 210.17C33.8295 210.162 33.4921 210.074 33.1906 209.913V209.913C33.1826 210.896 33.8896 211.749 34.8817 211.953C34.699 212 34.5104 212.023 34.3213 212.019C34.1873 212.034 34.0522 212.034 33.9182 212.019C34.1978 212.852 34.9828 213.426 35.8846 213.459C34.9874 214.131 33.8545 214.436 32.7285 214.308C34.5961 215.461 36.9628 215.538 38.9059 214.509C40.8491 213.479 42.0609 211.507 42.0689 209.36C42.0689 209.264 42.0689 209.179 42.0689 209.093C42.4949 208.801 42.8615 208.436 43.1505 208.015V208.015Z" fill="#8DC1FF"/>
<path d="M54.5359 208.268C54.5359 208.139 54.6403 208.034 54.7691 208.034H61.3719C61.5007 208.034 61.6051 208.139 61.6051 208.268V214.656C61.6051 214.785 61.5007 214.889 61.3719 214.889H54.7691C54.6403 214.889 54.5359 214.785 54.5359 214.656V208.268Z" fill="#FFD097"/>
<path fill-rule="evenodd" clip-rule="evenodd" d="M101.986 210.189H205.949C206.264 210.189 206.589 210.342 206.589 210.494V212.401C206.589 212.553 206.333 212.706 205.949 212.706H101.986C101.661 212.706 101.346 212.553 101.346 212.401V210.494C101.346 210.342 101.602 210.189 101.986 210.189" fill="#397BE5"/>
<path fill-rule="evenodd" clip-rule="evenodd" d="M65.9016 210.103H96.2334C96.3317 210.103 96.4202 210.265 96.4202 210.437V212.496C96.4202 212.658 96.3416 212.82 96.2334 212.82H65.9016C65.8131 212.82 65.7246 212.658 65.7246 212.496V210.437C65.7246 210.265 65.7934 210.103 65.9016 210.103" fill="#5598F9"/>
<path d="M220.56 208.268C220.56 208.139 220.664 208.034 220.793 208.034H227.396C227.525 208.034 227.629 208.139 227.629 208.268V214.656C227.629 214.785 227.525 214.889 227.396 214.889H220.793C220.664 214.889 220.56 214.785 220.56 214.656V208.268Z" fill="#FFEE95"/>
<path fill-rule="evenodd" clip-rule="evenodd" d="M267.591 210.089H323.776C323.951 210.089 324.121 210.244 324.121 210.399V212.335C324.121 212.49 323.983 212.645 323.776 212.645H267.591C267.421 212.645 267.246 212.49 267.246 212.335V210.399C267.246 210.244 267.384 210.089 267.591 210.089Z" fill="#397BE5"/>
<path fill-rule="evenodd" clip-rule="evenodd" d="M231.926 210.103H262.257C262.346 210.103 262.444 210.265 262.444 210.437V212.496C262.444 212.658 262.366 212.82 262.257 212.82H231.926C231.827 212.82 231.739 212.658 231.739 212.496V210.437C231.739 210.265 231.817 210.103 231.926 210.103" fill="#5598F9"/>
<path d="M224.749 48.7278H326.997V200.503H224.749V48.7278Z" fill="#2853DD"/>
<g opacity="0.3">
<path d="M242.011 97.214L240.367 98.8079C240.172 99.002 240.172 99.3117 240.367 99.5058C240.463 99.5984 240.592 99.6495 240.727 99.6473C240.859 99.647 240.985 99.5961 241.077 99.5058L242.731 97.9025C242.925 97.7115 242.925 97.4049 242.731 97.214C242.531 97.0247 242.211 97.0247 242.011 97.214Z" fill="white"/>
<path d="M240.815 92.7247C240.815 92.4523 240.59 92.23 240.309 92.2249H237.974C237.719 92.2591 237.53 92.4704 237.53 92.72C237.53 92.9696 237.719 93.1809 237.974 93.2151H240.309C240.586 93.2101 240.809 92.9935 240.815 92.7247Z" fill="white"/>
<path d="M242.011 88.3296C242.105 88.4254 242.235 88.4796 242.371 88.4796C242.507 88.4796 242.637 88.4254 242.731 88.3296C242.925 88.1387 242.925 87.8321 242.731 87.6411L241.039 86.0472C240.947 85.952 240.818 85.8979 240.684 85.8979C240.549 85.8979 240.421 85.952 240.329 86.0472C240.135 86.2382 240.135 86.5448 240.329 86.7357L242.011 88.3296Z" fill="white"/>
<path d="M247.284 86.4811C247.563 86.4811 247.789 86.2615 247.789 85.9907V83.7271C247.789 83.5971 247.736 83.4723 247.641 83.3803C247.546 83.2884 247.418 83.2367 247.284 83.2367C247.006 83.2417 246.783 83.4584 246.778 83.7271V85.9907C246.783 86.2594 247.006 86.4761 247.284 86.4811Z" fill="white"/>
<path d="M252.215 88.4806C252.352 88.4815 252.482 88.4267 252.575 88.3297L254.219 86.7358C254.413 86.5449 254.413 86.2382 254.219 86.0473C254.125 85.9516 253.995 85.8973 253.859 85.8973C253.723 85.8973 253.593 85.9516 253.499 86.0473L251.855 87.6412C251.661 87.8321 251.661 88.1388 251.855 88.3297C251.948 88.4267 252.079 88.4815 252.215 88.4806Z" fill="white"/>
<path fill-rule="evenodd" clip-rule="evenodd" d="M261.116 92.819C260.574 92.823 260.035 92.8927 259.511 93.0265C259.028 90.6164 256.868 88.8648 254.336 88.8295C253.277 88.8291 252.243 89.138 251.369 89.7161C250.405 88.4705 248.889 87.7424 247.283 87.7544C244.9 87.728 242.808 89.2857 242.219 91.5246C241.63 93.7636 242.698 96.1025 244.803 97.1857C243.609 98.7283 243.406 100.789 244.278 102.523C245.149 104.256 246.948 105.371 248.937 105.41H261.398C264.828 105.171 267.503 102.434 267.565 99.1003C267.57 97.4378 266.893 95.8415 265.683 94.6632C264.474 93.485 262.83 92.8215 261.116 92.819ZM243.139 92.7247C243.139 90.5043 244.993 88.7027 247.283 88.6975C248.584 88.6869 249.811 89.2835 250.581 90.3009C249.576 91.2653 249.012 92.58 249.015 93.9508C249.015 94.3033 249.058 94.6546 249.141 94.9977C247.805 94.9922 246.515 95.4774 245.532 96.3558C244.07 95.705 243.134 94.2853 243.139 92.7247ZM248.957 104.363H261.33V104.401C264.211 104.178 266.449 101.874 266.505 99.072C266.521 97.3508 265.662 95.7322 264.208 94.7446C262.754 93.757 260.892 93.5271 259.229 94.1299C259.081 94.1861 258.913 94.1685 258.781 94.0828C258.648 94.0029 258.561 93.8665 258.548 93.715C258.402 91.5335 256.561 89.8219 254.307 89.7727C253.16 89.7635 252.06 90.21 251.262 91.0082C250.453 91.791 249.995 92.8518 249.988 93.9602C250.002 94.4557 250.098 94.9459 250.27 95.4126C250.33 95.5797 250.289 95.7655 250.163 95.8936C250.035 96.0237 249.848 96.0807 249.667 96.0445C249.476 95.999 249.279 95.98 249.083 95.9879C247.785 95.9848 246.554 96.5454 245.727 97.5158C245.104 98.271 244.761 99.2081 244.754 100.175C244.769 102.439 246.624 104.287 248.957 104.363Z" fill="white"/>
<path d="M251.563 107.023C251.305 106.918 251.009 107.037 250.902 107.287L249.793 109.937C249.691 110.187 249.811 110.47 250.065 110.578C250.129 110.591 250.196 110.591 250.26 110.578C250.464 110.578 250.648 110.459 250.727 110.276L251.874 107.626C251.953 107.377 251.816 107.112 251.563 107.023V107.023Z" fill="white"/>
<path d="M259.929 107.023C259.805 106.973 259.666 106.972 259.542 107.022C259.418 107.071 259.319 107.167 259.267 107.287L258.12 109.937C258.018 110.187 258.138 110.47 258.392 110.578C258.456 110.591 258.522 110.591 258.587 110.578C258.791 110.578 258.975 110.459 259.053 110.276L260.201 107.626C260.284 107.387 260.166 107.126 259.929 107.023Z" fill="white"/>
<path d="M255.746 107.023C255.491 106.917 255.196 107.031 255.085 107.277L253.295 111.333C253.187 111.585 253.308 111.875 253.567 111.983C253.631 111.998 253.698 111.998 253.762 111.983C253.966 111.983 254.15 111.864 254.229 111.682L256.018 107.626C256.101 107.387 255.983 107.126 255.746 107.023Z" fill="white"/>
</g>
<path d="M280.985 92.5029C280.985 90.9147 282.273 89.6272 283.861 89.6272H311.34C312.928 89.6272 314.216 90.9147 314.216 92.5029C314.216 94.0912 312.928 95.3787 311.34 95.3787H283.861C282.273 95.3787 280.985 94.0912 280.985 92.5029Z" fill="#6887E7"/>
<path d="M280.985 103.047C280.985 101.459 282.273 100.172 283.861 100.172H311.34C312.928 100.172 314.216 101.459 314.216 103.047C314.216 104.636 312.928 105.923 311.34 105.923H283.861C282.273 105.923 280.985 104.636 280.985 103.047Z" fill="#6887E7"/>
<g opacity="0.3">
<path d="M242.011 135.557L240.367 137.151C240.172 137.345 240.172 137.655 240.367 137.849C240.463 137.942 240.592 137.993 240.727 137.99C240.859 137.99 240.985 137.939 241.077 137.849L242.731 136.246C242.925 136.055 242.925 135.748 242.731 135.557C242.531 135.368 242.211 135.368 242.011 135.557Z" fill="white"/>
<path d="M240.815 131.068C240.815 130.795 240.59 130.573 240.309 130.568H237.974C237.719 130.602 237.53 130.813 237.53 131.063C237.53 131.313 237.719 131.524 237.974 131.558H240.309C240.586 131.553 240.809 131.336 240.815 131.068Z" fill="white"/>
<path d="M242.011 126.673C242.105 126.768 242.235 126.823 242.371 126.823C242.507 126.823 242.637 126.768 242.731 126.673C242.925 126.482 242.925 126.175 242.731 125.984L241.039 124.39C240.947 124.295 240.818 124.241 240.684 124.241C240.549 124.241 240.421 124.295 240.329 124.39C240.135 124.581 240.135 124.888 240.329 125.079L242.011 126.673Z" fill="white"/>
<path d="M247.284 124.824C247.563 124.824 247.789 124.605 247.789 124.334V122.07C247.789 121.94 247.736 121.815 247.641 121.723C247.546 121.632 247.418 121.58 247.284 121.58C247.006 121.585 246.783 121.802 246.778 122.07V124.334C246.783 124.603 247.006 124.819 247.284 124.824Z" fill="white"/>
<path d="M252.215 126.824C252.352 126.825 252.482 126.77 252.575 126.673L254.219 125.079C254.413 124.888 254.413 124.581 254.219 124.39C254.125 124.295 253.995 124.24 253.859 124.24C253.723 124.24 253.593 124.295 253.499 124.39L251.855 125.984C251.661 126.175 251.661 126.482 251.855 126.673C251.948 126.77 252.079 126.825 252.215 126.824Z" fill="white"/>
<path fill-rule="evenodd" clip-rule="evenodd" d="M261.116 131.162C260.574 131.166 260.035 131.236 259.511 131.37C259.028 128.96 256.868 127.208 254.336 127.173C253.277 127.172 252.243 127.481 251.369 128.059C250.405 126.814 248.889 126.086 247.283 126.097C244.9 126.071 242.808 127.629 242.219 129.868C241.63 132.107 242.698 134.446 244.803 135.529C243.609 137.071 243.406 139.132 244.278 140.866C245.149 142.6 246.948 143.714 248.937 143.753H261.398C264.828 143.514 267.503 140.777 267.565 137.443C267.57 135.781 266.893 134.185 265.683 133.006C264.474 131.828 262.83 131.165 261.116 131.162ZM243.139 131.068C243.139 128.847 244.993 127.046 247.283 127.041C248.584 127.03 249.811 127.627 250.581 128.644C249.576 129.608 249.012 130.923 249.015 132.294C249.015 132.646 249.058 132.998 249.141 133.341C247.805 133.335 246.515 133.821 245.532 134.699C244.07 134.048 243.134 132.628 243.139 131.068ZM248.957 142.706H261.33V142.744C264.211 142.521 266.449 140.217 266.505 137.415C266.521 135.694 265.662 134.075 264.208 133.088C262.754 132.1 260.892 131.87 259.229 132.473C259.081 132.529 258.913 132.512 258.781 132.426C258.648 132.346 258.561 132.21 258.548 132.058C258.402 129.877 256.561 128.165 254.307 128.116C253.16 128.107 252.06 128.553 251.262 129.351C250.453 130.134 249.995 131.195 249.988 132.303C250.002 132.799 250.098 133.289 250.27 133.756C250.33 133.923 250.289 134.109 250.163 134.237C250.035 134.367 249.848 134.424 249.667 134.388C249.476 134.342 249.279 134.323 249.083 134.331C247.785 134.328 246.554 134.889 245.727 135.859C245.104 136.614 244.761 137.551 244.754 138.519C244.769 140.782 246.624 142.63 248.957 142.706Z" fill="white"/>
<path d="M251.563 145.366C251.305 145.262 251.009 145.38 250.902 145.63L249.793 148.28C249.691 148.53 249.811 148.813 250.065 148.921C250.129 148.935 250.196 148.935 250.26 148.921C250.464 148.921 250.648 148.802 250.727 148.62L251.874 145.969C251.953 145.72 251.816 145.455 251.563 145.366V145.366Z" fill="white"/>
<path d="M259.929 145.366C259.805 145.316 259.666 145.315 259.542 145.365C259.418 145.414 259.319 145.51 259.267 145.63L258.12 148.28C258.018 148.53 258.138 148.813 258.392 148.921C258.456 148.935 258.522 148.935 258.587 148.921C258.791 148.921 258.975 148.802 259.053 148.62L260.201 145.969C260.284 145.73 260.166 145.469 259.929 145.366Z" fill="white"/>
<path d="M255.746 145.366C255.491 145.26 255.196 145.374 255.085 145.62L253.295 149.676C253.187 149.928 253.308 150.218 253.567 150.327C253.631 150.341 253.698 150.341 253.762 150.327C253.966 150.327 254.15 150.208 254.229 150.025L256.018 145.969C256.101 145.73 255.983 145.469 255.746 145.366Z" fill="white"/>
</g>
<path d="M280.985 130.846C280.985 129.258 282.273 127.97 283.861 127.97H311.34C312.928 127.97 314.216 129.258 314.216 130.846C314.216 132.434 312.928 133.722 311.34 133.722H283.861C282.273 133.722 280.985 132.434 280.985 130.846Z" fill="#6887E7"/>
<path d="M280.985 141.39C280.985 139.802 282.273 138.515 283.861 138.515H311.34C312.928 138.515 314.216 139.802 314.216 141.39C314.216 142.979 312.928 144.266 311.34 144.266H283.861C282.273 144.266 280.985 142.979 280.985 141.39Z" fill="#6887E7"/>
<g opacity="0.3">
<path fill-rule="evenodd" clip-rule="evenodd" d="M246.578 174.208C246.578 177.367 249.219 179.928 252.477 179.928C254.042 179.928 255.542 179.325 256.648 178.252C257.755 177.18 258.376 175.725 258.376 174.208C258.376 171.049 255.735 168.488 252.477 168.488C249.219 168.488 246.578 171.049 246.578 174.208ZM247.669 174.227C247.669 171.652 249.822 169.565 252.477 169.565C255.13 169.57 257.28 171.654 257.285 174.227C257.285 176.801 255.133 178.889 252.477 178.889C249.822 178.889 247.669 176.801 247.669 174.227Z" fill="white"/>
<path d="M263.243 174.808H260.51C260.211 174.771 259.987 174.524 259.987 174.231C259.987 173.939 260.211 173.692 260.51 173.655H263.243C263.542 173.692 263.766 173.939 263.766 174.231C263.766 174.524 263.542 174.771 263.243 174.808Z" fill="white"/>
<path d="M260.441 182.302C260.287 182.301 260.139 182.243 260.028 182.14L258.062 180.233C257.836 180.007 257.836 179.648 258.062 179.423C258.173 179.312 258.325 179.25 258.485 179.25C258.644 179.25 258.796 179.312 258.907 179.423L260.874 181.329C260.988 181.437 261.052 181.585 261.052 181.739C261.052 181.894 260.988 182.041 260.874 182.149C260.755 182.252 260.6 182.307 260.441 182.302Z" fill="white"/>
<path d="M252.713 185.4C252.555 185.4 252.403 185.338 252.292 185.229C252.181 185.12 252.12 184.972 252.123 184.818V182.178C252.123 181.862 252.387 181.606 252.713 181.606C253.039 181.606 253.303 181.862 253.303 182.178V184.818C253.306 184.972 253.245 185.12 253.134 185.229C253.023 185.338 252.871 185.4 252.713 185.4V185.4Z" fill="white"/>
<path d="M245.024 182.273C244.867 182.273 244.716 182.215 244.601 182.111C244.374 181.882 244.374 181.52 244.601 181.291L246.568 179.384C246.677 179.274 246.828 179.212 246.986 179.212C247.143 179.212 247.294 179.274 247.403 179.384C247.515 179.492 247.577 179.638 247.577 179.79C247.577 179.942 247.515 180.088 247.403 180.195L245.437 182.102C245.325 182.205 245.179 182.266 245.024 182.273V182.273Z" fill="white"/>
<path d="M245.024 182.302C244.867 182.302 244.716 182.244 244.601 182.14C244.374 181.911 244.374 181.549 244.601 181.32L246.568 179.413C246.677 179.303 246.828 179.241 246.986 179.241C247.143 179.241 247.294 179.303 247.403 179.413C247.515 179.52 247.577 179.666 247.577 179.818C247.577 179.97 247.515 180.116 247.403 180.223L245.437 182.13C245.325 182.234 245.179 182.295 245.024 182.302V182.302Z" fill="white"/>
<path d="M252.752 185.4C252.594 185.4 252.443 185.339 252.332 185.229C252.221 185.12 252.16 184.972 252.162 184.819V182.178C252.16 182.024 252.221 181.876 252.332 181.767C252.443 181.658 252.594 181.596 252.752 181.596C253.084 181.596 253.352 181.857 253.352 182.178V184.819C253.352 185.14 253.084 185.4 252.752 185.4V185.4Z" fill="white"/>
<path d="M260.441 182.273C260.287 182.272 260.139 182.214 260.028 182.111L258.062 180.204C257.836 179.979 257.836 179.62 258.062 179.394C258.173 179.283 258.325 179.221 258.485 179.221C258.644 179.221 258.796 179.283 258.907 179.394L260.874 181.301C260.988 181.408 261.052 181.556 261.052 181.711C261.052 181.865 260.988 182.013 260.874 182.12C260.755 182.223 260.6 182.278 260.441 182.273V182.273Z" fill="white"/>
<path d="M244.444 174.808H241.721C241.49 174.837 241.263 174.734 241.138 174.544C241.013 174.353 241.013 174.11 241.138 173.92C241.263 173.729 241.49 173.626 241.721 173.655H244.444C244.675 173.626 244.902 173.729 245.027 173.92C245.152 174.11 245.152 174.353 245.027 174.544C244.902 174.734 244.675 174.837 244.444 174.808Z" fill="white"/>
<path d="M246.45 169.174C246.292 169.178 246.14 169.12 246.027 169.012L244.061 167.105C243.835 166.88 243.835 166.521 244.061 166.295C244.172 166.184 244.324 166.122 244.484 166.122C244.643 166.122 244.795 166.184 244.906 166.295L246.873 168.202C246.987 168.309 247.051 168.457 247.051 168.612C247.051 168.766 246.987 168.914 246.873 169.021C246.76 169.127 246.607 169.182 246.45 169.174Z" fill="white"/>
<path d="M252.241 166.848C252.085 166.848 251.935 166.788 251.824 166.68C251.713 166.573 251.651 166.428 251.651 166.276V163.626C251.69 163.335 251.944 163.118 252.246 163.118C252.548 163.118 252.802 163.335 252.841 163.626V166.276C252.841 166.429 252.777 166.576 252.665 166.684C252.552 166.791 252.399 166.85 252.241 166.848Z" fill="white"/>
<path d="M258.003 169.203C257.846 169.201 257.696 169.143 257.58 169.041C257.353 168.812 257.353 168.45 257.58 168.221L259.547 166.314C259.696 166.169 259.913 166.113 260.117 166.166C260.321 166.219 260.481 166.373 260.535 166.571C260.59 166.769 260.532 166.98 260.382 167.124L258.416 169.031C258.305 169.136 258.158 169.198 258.003 169.203Z" fill="white"/>
<path d="M258.003 169.174C257.845 169.177 257.693 169.119 257.58 169.012C257.353 168.783 257.353 168.421 257.58 168.192L259.547 166.285C259.696 166.141 259.913 166.084 260.117 166.137C260.321 166.19 260.481 166.345 260.535 166.542C260.59 166.74 260.532 166.951 260.382 167.096L258.416 169.002C258.308 169.111 258.159 169.173 258.003 169.174Z" fill="white"/>
<path d="M252.202 166.848C252.045 166.848 251.895 166.788 251.785 166.68C251.674 166.573 251.612 166.428 251.612 166.276V163.626C251.65 163.335 251.905 163.118 252.207 163.118C252.508 163.118 252.763 163.335 252.801 163.626V166.276C252.802 166.429 252.738 166.576 252.625 166.684C252.512 166.791 252.36 166.85 252.202 166.848Z" fill="white"/>
<path d="M246.45 169.203C246.293 169.202 246.142 169.145 246.027 169.041L244.061 167.134C243.835 166.908 243.835 166.549 244.061 166.323C244.172 166.213 244.324 166.15 244.484 166.15C244.643 166.15 244.795 166.213 244.906 166.323L246.873 168.23C246.987 168.338 247.051 168.486 247.051 168.64C247.051 168.795 246.987 168.942 246.873 169.05C246.757 169.151 246.606 169.205 246.45 169.203Z" fill="white"/>
</g>
<path d="M280.985 168.87C280.985 167.282 282.273 165.994 283.861 165.994H311.34C312.929 165.994 314.216 167.282 314.216 168.87C314.216 170.458 312.929 171.745 311.34 171.745H283.861C282.273 171.745 280.985 170.458 280.985 168.87Z" fill="#6887E7"/>
<path d="M280.985 179.414C280.985 177.826 282.273 176.538 283.861 176.538H311.34C312.929 176.538 314.216 177.826 314.216 179.414C314.216 181.002 312.929 182.29 311.34 182.29H283.861C282.273 182.29 280.985 181.002 280.985 179.414Z" fill="#6887E7"/>
<path d="M239.127 64.3847C239.127 62.7964 240.415 61.5089 242.003 61.5089H300.636C302.224 61.5089 303.512 62.7964 303.512 64.3847C303.512 65.9729 302.224 67.2604 300.636 67.2604H242.003C240.415 67.2604 239.127 65.9729 239.127 64.3847Z" fill="#6887E7"/>
<path fill-rule="evenodd" clip-rule="evenodd" d="M20.2515 200.503H224.748V48.7278H20.2515V200.503V200.503Z" fill="#E4E9ED"/>
<g filter="url(#filter1_d_2852_29781)">
<path d="M33.0325 61.5088H211.967V187.722H33.0325V61.5088Z" fill="white"/>
</g>
<path d="M52.2041 83.5562C52.2041 81.9679 53.4916 80.6804 55.0798 80.6804H113.713C115.301 80.6804 116.589 81.9679 116.589 83.5562C116.589 85.1444 115.301 86.4319 113.713 86.4319H55.0798C53.4916 86.4319 52.2041 85.1444 52.2041 83.5562Z" fill="#E8EAF2"/>
<path d="M52.2041 94.1006C52.2041 92.5124 53.4916 91.2249 55.0798 91.2249L170.429 91.2249C172.017 91.2249 173.305 92.5124 173.305 94.1006C173.305 95.6888 172.017 96.9763 170.429 96.9763L55.0798 96.9763C53.4916 96.9763 52.2041 95.6888 52.2041 94.1006Z" fill="#E8EAF2"/>
<path d="M52.2041 165.675C52.2041 164.086 53.4916 162.799 55.0798 162.799H113.713C115.301 162.799 116.589 164.086 116.589 165.675C116.589 167.263 115.301 168.55 113.713 168.55H55.0798C53.4916 168.55 52.2041 167.263 52.2041 165.675Z" fill="#E8EAF2"/>
<path d="M52.2041 155.13C52.2041 153.542 53.4916 152.254 55.0798 152.254H113.713C115.301 152.254 116.589 153.542 116.589 155.13C116.589 156.718 115.301 158.006 113.713 158.006H55.0798C53.4916 158.006 52.2041 156.718 52.2041 155.13Z" fill="#E8EAF2"/>
<path d="M52.2041 144.586C52.2041 142.998 53.4916 141.71 55.0798 141.71H113.713C115.301 141.71 116.589 142.998 116.589 144.586C116.589 146.174 115.301 147.462 113.713 147.462H55.0798C53.4916 147.462 52.2041 146.174 52.2041 144.586Z" fill="#E8EAF2"/>
<path fill-rule="evenodd" clip-rule="evenodd" d="M189.41 134.68C187.684 134.69 186.219 135.91 185.948 137.562L155.023 147.999C154.566 146.357 152.922 145.299 151.184 145.53C149.446 145.762 148.156 147.209 148.172 148.91V154.362C148.156 156.063 149.446 157.511 151.184 157.742C152.922 157.973 154.566 156.916 155.023 155.273L158.654 156.496V161.816C158.66 162.108 158.857 162.365 159.144 162.454L170.325 165.842C170.396 165.861 170.471 165.861 170.542 165.842C170.693 165.841 170.84 165.792 170.96 165.702C171.133 165.574 171.236 165.376 171.241 165.165V160.686L185.948 165.671C186.197 167.447 187.829 168.728 189.672 168.594C191.515 168.46 192.932 166.957 192.904 165.165V138.068C192.895 136.201 191.336 134.689 189.41 134.68ZM151.658 156.372C150.502 156.367 149.566 155.46 149.561 154.339V148.887C149.561 147.764 150.5 146.854 151.658 146.854C152.816 146.854 153.754 147.764 153.754 148.887V154.339C153.75 155.457 152.819 156.363 151.666 156.372H151.658ZM185.908 138.995L155.152 149.362L155.16 153.864L185.908 164.207V138.995ZM169.835 160.414V164.238L160.059 161.302V156.971L169.883 160.289C169.883 160.289 169.843 160.367 169.843 160.437L169.835 160.414ZM189.426 167.19C190.584 167.19 191.523 166.28 191.523 165.157V138.068C191.523 136.946 190.584 136.036 189.426 136.036C188.268 136.036 187.33 136.946 187.33 138.068V165.157C187.33 166.28 188.268 167.19 189.426 167.19Z" fill="#FFAB4F"/>
</g>
</g>
<defs>
<filter id="filter0_d_2852_29781" x="0.251465" y="38.7278" width="346.746" height="212.544" filterUnits="userSpaceOnUse" color-interpolation-filters="sRGB">
<feFlood flood-opacity="0" result="BackgroundImageFix"/>
<feColorMatrix in="SourceAlpha" type="matrix" values="0 0 0 0 0 0 0 0 0 0 0 0 0 0 0 0 0 0 127 0" result="hardAlpha"/>
<feOffset dy="10"/>
<feGaussianBlur stdDeviation="10"/>
<feComposite in2="hardAlpha" operator="out"/>
<feColorMatrix type="matrix" values="0 0 0 0 0 0 0 0 0 0 0 0 0 0 0 0 0 0 0.1 0"/>
<feBlend mode="normal" in2="BackgroundImageFix" result="effect1_dropShadow_2852_29781"/>
<feBlend mode="normal" in="SourceGraphic" in2="effect1_dropShadow_2852_29781" result="shape"/>
</filter>
<filter id="filter1_d_2852_29781" x="13.0325" y="51.5088" width="218.935" height="166.213" filterUnits="userSpaceOnUse" color-interpolation-filters="sRGB">
<feFlood flood-opacity="0" result="BackgroundImageFix"/>
<feColorMatrix in="SourceAlpha" type="matrix" values="0 0 0 0 0 0 0 0 0 0 0 0 0 0 0 0 0 0 127 0" result="hardAlpha"/>
<feOffset dy="10"/>
<feGaussianBlur stdDeviation="10"/>
<feComposite in2="hardAlpha" operator="out"/>
<feColorMatrix type="matrix" values="0 0 0 0 0 0 0 0 0 0 0 0 0 0 0 0 0 0 0.1 0"/>
<feBlend mode="normal" in2="BackgroundImageFix" result="effect1_dropShadow_2852_29781"/>
<feBlend mode="normal" in="SourceGraphic" in2="effect1_dropShadow_2852_29781" result="shape"/>
</filter>
<linearGradient id="paint0_linear_2852_29781" x1="38.7334" y1="-6.67933e-07" x2="308.733" y2="270" gradientUnits="userSpaceOnUse">
<stop stop-color="#FFF5CC"/>
<stop offset="1" stop-color="#FEE266"/>
</linearGradient>
</defs>
</svg>
