<?xml version="1.0" encoding="UTF-8"?>
<svg width="205px" height="120px" viewBox="0 0 205 120" version="1.1" xmlns="http://www.w3.org/2000/svg" xmlns:xlink="http://www.w3.org/1999/xlink">
    <!-- Generator: Sketch 55.2 (78181) - https://sketchapp.com -->
    <title>Landscape</title>
    <desc>Created with Sketch.</desc>
    <g id="Landscape" stroke="none" stroke-width="1" fill="none" fill-rule="evenodd">
        <g id="TV" fill="#DDDDDD">
            <path d="M2.25,2.25 L2.25,117.75 L202.5,117.75 L202.5,2.25 L2.25,2.25 Z M2.25,0 L202.5,0 C203.742641,0 204.75,1.00735931 204.75,2.25 L204.75,117.75 C204.75,118.992641 203.742641,120 202.5,120 L2.25,120 C1.00735931,120 0,118.992641 0,117.75 L0,2.25 C0,1.00735931 1.00735931,0 2.25,0 Z M6.75,6.75 L6.75,111.747201 L198,111.747201 L198,6.75 L6.75,6.75 Z M5.25,5.25 L199.5,5.25 L199.5,113.247201 L5.25,113.247201 L5.25,5.25 Z M100.5,114.75 L104.25,114.75 C104.664214,114.75 105,115.085786 105,115.5 C105,115.914214 104.664214,116.25 104.25,116.25 L100.5,116.25 C100.085786,116.25 99.75,115.914214 99.75,115.5 C99.75,115.085786 100.085786,114.75 100.5,114.75 Z" id="TV-Frame" fill-rule="nonzero"></path>
            <path d="M31.5,23.25 L91.5,23.25 L91.5,95.25 L31.5,95.25 L31.5,23.25 Z M117,47.25 L169.5,47.25 C171.571068,47.25 173.25,48.9289322 173.25,51 C173.25,53.0710678 171.571068,54.75 169.5,54.75 L117,54.75 C114.928932,54.75 113.25,53.0710678 113.25,51 C113.25,48.9289322 114.928932,47.25 117,47.25 Z M117,60.75 L169.5,60.75 C171.571068,60.75 173.25,62.4289322 173.25,64.5 C173.25,66.5710678 171.571068,68.25 169.5,68.25 L117,68.25 C114.928932,68.25 113.25,66.5710678 113.25,64.5 C113.25,62.4289322 114.928932,60.75 117,60.75 Z M117,74.25 L169.5,74.25 C171.571068,74.25 173.25,75.9289322 173.25,78 C173.25,80.0710678 171.571068,81.75 169.5,81.75 L117,81.75 C114.928932,81.75 113.25,80.0710678 113.25,78 C113.25,75.9289322 114.928932,74.25 117,74.25 Z M117,87.75 L169.5,87.75 C171.571068,87.75 173.25,89.4289322 173.25,91.5 C173.25,93.5710678 171.571068,95.25 169.5,95.25 L117,95.25 C114.928932,95.25 113.25,93.5710678 113.25,91.5 C113.25,89.4289322 114.928932,87.75 117,87.75 Z" id="Content" opacity="0.4"></path>
            <polygon id="Glare" opacity="0.1" points="7.5 7.5 22.5 7.5 182.25 111 7.5 111"></polygon>
        </g>
    </g>
</svg>