<?xml version="1.0" encoding="UTF-8"?>
<svg width="120px" height="205px" viewBox="0 0 120 205" version="1.1" xmlns="http://www.w3.org/2000/svg" xmlns:xlink="http://www.w3.org/1999/xlink">
    <!-- Generator: Sketch 55.2 (78181) - https://sketchapp.com -->
    <title>Portrait</title>
    <desc>Created with Sketch.</desc>
    <g id="Portrait" stroke="none" stroke-width="1" fill="none" fill-rule="evenodd">
        <g id="TV" fill="#DDDDDD">
            <path d="M-40.125,44.625 L-40.125,160.125 L160.125,160.125 L160.125,44.625 L-40.125,44.625 Z M-40.125,42.375 L160.125,42.375 C161.367641,42.375 162.375,43.3823593 162.375,44.625 L162.375,160.125 C162.375,161.367641 161.367641,162.375 160.125,162.375 L-40.125,162.375 C-41.3676407,162.375 -42.375,161.367641 -42.375,160.125 L-42.375,44.625 C-42.375,43.3823593 -41.3676407,42.375 -40.125,42.375 Z M-35.625,49.125 L-35.625,154.122201 L155.625,154.122201 L155.625,49.125 L-35.625,49.125 Z M-37.125,47.625 L157.125,47.625 L157.125,155.622201 L-37.125,155.622201 L-37.125,47.625 Z M58.125,157.125 L61.875,157.125 C62.2892136,157.125 62.625,157.460786 62.625,157.875 C62.625,158.289214 62.2892136,158.625 61.875,158.625 L58.125,158.625 C57.7107864,158.625 57.375,158.289214 57.375,157.875 C57.375,157.460786 57.7107864,157.125 58.125,157.125 Z" id="TV-Frame" fill-rule="nonzero" transform="translate(60.000000, 102.375000) rotate(-90.000000) translate(-60.000000, -102.375000) "></path>
            <path d="M96,32.25 L96,92.25 L24,92.25 L24,32.25 L96,32.25 Z M33.75,160.5 L86.25,160.5 C88.3210678,160.5 90,162.178932 90,164.25 C90,166.321068 88.3210678,168 86.25,168 L33.75,168 C31.6789322,168 30,166.321068 30,164.25 C30,162.178932 31.6789322,160.5 33.75,160.5 Z M33.75,147 L86.25,147 C88.3210678,147 90,148.678932 90,150.75 C90,152.821068 88.3210678,154.5 86.25,154.5 L33.75,154.5 C31.6789322,154.5 30,152.821068 30,150.75 C30,148.678932 31.6789322,147 33.75,147 Z M33.75,133.5 L86.25,133.5 C88.3210678,133.5 90,135.178932 90,137.25 C90,139.321068 88.3210678,141 86.25,141 L33.75,141 C31.6789322,141 30,139.321068 30,137.25 C30,135.178932 31.6789322,133.5 33.75,133.5 Z M33.75,120 L86.25,120 C88.3210678,120 90,121.678932 90,123.75 C90,125.821068 88.3210678,127.5 86.25,127.5 L33.75,127.5 C31.6789322,127.5 30,125.821068 30,123.75 C30,121.678932 31.6789322,120 33.75,120 Z" id="Content" opacity="0.5"></path>
            <polygon id="Glare" opacity="0.1" points="7.5 7.5 16.5 7.5 102 197.25 7.5 197.25"></polygon>
        </g>
    </g>
</svg>